<svg id="Capa_1" data-name="Capa 1" xmlns="http://www.w3.org/2000/svg" viewBox="0 0 192 192"><defs><style>.cls-1{fill:#f49739;}.cls-2{fill:#fff;}</style></defs><title>fb</title><rect class="cls-1" width="192" height="192"/><path class="cls-2" d="M268.74,357.05c3.81,0,7.62.2,11.39.37,2.47.08,4.95.44,7.26.69L287.22,381H285.4c-2.51,0-5,0-7.54,0-1.86,0-3.77,0-5.63.08-6,.21-10.5,2.48-10.82,10.05-.21,5.44-.33,17.47-.33,18.12.33,0,6.29,0,12.32,0,3,0,6,0,8,0h4.9c-1.21,8.75-2.35,17.18-3.56,25.65H261.08l-.48,64.08H234l.49-64.2H212.77l.21-25.53h21.84v-1.9c0-5.15,0-10.3.16-15.45a66.47,66.47,0,0,1,.81-9.76c1.46-7.82,5.11-14.39,11.64-19.05a33.39,33.39,0,0,1,19.16-6Z" transform="translate(-154.08 -331.19)"/></svg>