<svg id="Capa_1" data-name="Capa 1" xmlns="http://www.w3.org/2000/svg" viewBox="0 0 192 192"><defs><style>.cls-1{fill:#fff;}.cls-2{fill:#f93;}</style></defs><title>fbb</title><rect class="cls-1" width="192" height="192"/><path class="cls-2" d="M114.66,25.86c3.81,0,7.62.2,11.39.37,2.47.08,5,.44,7.26.69l-.17,22.89h-9.36c-1.86,0-3.77,0-5.63.08-6,.21-10.5,2.48-10.82,10-.21,5.44-.33,17.47-.33,18.12h25.22c-1.21,8.75-2.35,17.18-3.56,25.65H107l-.48,64.08H79.92l.49-64.2H58.69l.21-25.53H80.74v-1.9c0-5.15,0-10.3.16-15.45A66.47,66.47,0,0,1,81.71,51c1.46-7.82,5.11-14.39,11.64-19.05a33.4,33.4,0,0,1,19.16-6Z" transform="translate(0 0)"/></svg>