<svg xmlns="http://www.w3.org/2000/svg" viewBox="0 0 1122 1122"><defs><style>.cls-1{fill:#fff;}</style></defs><title>logo-empresa</title><g id="Bg"><rect class="cls-1" width="1122" height="1122"/></g><g id="Object"><path d="M256.27,675V442.73h46.44a54.4,54.4,0,0,1,33.15,10.93q12.64,9.25,18.05,28.7a90.6,90.6,0,0,1,3,24.63q0,23.34-11,37.41A31.7,31.7,0,0,1,335,553.47q10.33,4.46,17.56,17.6,4.75,8.88,7.06,23a103.69,103.69,0,0,1,1.15,16.11q0,22-7.39,37.41a48,48,0,0,1-16.24,19.26Q325.36,675,313.71,675Zm33.48-137.4h13q14.44,0,19.37-15.93a51,51,0,0,0,1.8-14.63q0-14.44-6.23-21.85a18.57,18.57,0,0,0-14.94-6.85h-13Zm0,102.77h13q15.77,0,21.83-18.33a45,45,0,0,0,2.13-14.44q0-19.45-6.56-28.34-5.91-8.15-17.4-8.14h-13Z"/><path d="M436.59,442.92q25.92,0,38.07,16.11,10.66,14.07,10.67,39.26V532q0,24.63-16.58,41.67l23,101.29H458.18l-18.8-87.4H418.7V675h-31v-232Zm18.54,55.92q0-20.18-17.72-20.18H418.7v74.26h18.71A16.06,16.06,0,0,0,450,547a20.93,20.93,0,0,0,5.17-14.26Z"/><path d="M556.36,621.62,548.82,675H516.53l35-232h42.67l34.46,232H596l-7.26-53.33Zm16.29-125.55-11.49,91.48h23Z"/><path d="M689.39,442.73,730.55,598.8V442.73h31V675H728.25l-42.67-148.7V675h-31V442.73Z"/><path d="M886.61,619.4q0,23-14.27,39.26T837.87,675H789.13V442.73h48.74q20.36,0,34.55,16.3t14.19,39.07Zm-66.46,20.92h18.71a15.73,15.73,0,0,0,12.47-6,21.27,21.27,0,0,0,5.09-14.17V498.66a21,21,0,0,0-5.17-14.26,15.92,15.92,0,0,0-12.39-5.93H820.15Z"/><path d="M338.33,300.62l9.09,10.59-3.77,3.23-21.45-25,3.76-3.23,9.12,10.62,4.54-3.91-9.11-10.61,3.78-3.24,21.45,25L352,307.3l-9.09-10.59Z"/><path d="M370.63,292.7l-4,2.95-19.58-26.49,4-3Z"/><path d="M388.8,280.88a7.87,7.87,0,0,1-10.86-2.43l-9.61-15.2a7.87,7.87,0,1,1,13.31-8.41l2,3.17-4.36,2.76-2.06-3.27a2.88,2.88,0,0,0-4-.89,2.76,2.76,0,0,0-1.25,1.78,2.88,2.88,0,0,0,.38,2.16L382,275.79a2.85,2.85,0,0,0,4.83-3l-3.46-5.47-2.34,1.47-2.66-4.22,6.69-4.23,6.15,9.74a7.85,7.85,0,0,1-2.45,10.84Z"/><path d="M405.05,254.89l6.39,12.42L407,269.58,392,240.28l4.41-2.27,6.4,12.44,5.33-2.74-6.4-12.44,4.42-2.27,15.07,29.3-4.42,2.27-6.39-12.42Z"/><path d="M469.65,235.6a7.72,7.72,0,0,1,.19,4.07,2.36,2.36,0,0,0,2,.15l1.41,4.41c-2.38.76-4.23.53-5.57-.68a7.47,7.47,0,0,1-3.16,1.94,7.88,7.88,0,0,1-9.91-5.12l-5.46-17.14a7.87,7.87,0,1,1,15-4.77Zm-10.4-15.68a2.86,2.86,0,0,0-3.59-1.84,2.77,2.77,0,0,0-1.67,1.4,2.74,2.74,0,0,0-.18,2.17l5.47,17.19a2.83,2.83,0,0,0,3.57,1.84,2.82,2.82,0,0,0,1.68-1.4,2.74,2.74,0,0,0,.19-2.17Z"/><path d="M492.73,237.82a7.79,7.79,0,0,1-9.38-5.93L477.79,207l4.74-1.06,5.55,24.81a2.76,2.76,0,0,0,1.27,1.78,2.88,2.88,0,0,0,3.94-.89,2.73,2.73,0,0,0,.36-2.14l-5.55-24.81,5-1.13,5.57,24.86a7.46,7.46,0,0,1-1,5.94A7.7,7.7,0,0,1,492.73,237.82Z"/><path d="M518.16,225.14l-.21,7.67-5.13.67,1.28-33.39,6.77-.89,9.75,32-5.18.68-2.13-7.36Zm.28-18-.14,13.12,3.65-.48Z"/><path d="M557.47,229.54,544,230.1l-1.37-32.92,5-.21,1.16,28,8.56-.36Z"/><path d="M575.3,229.7l-5-.13.83-32.93,5,.13Z"/><path d="M596.46,203l-5.26-.49.45-5L607.1,199l-.46,5-5.23-.48-2.55,27.83-5-.45Z"/><path d="M625.71,221.16l-3-20.06,5.37,1,1.45,12.3,5.76-11,5.4,1L630.6,222.07l-2.52,13.57-4.89-.91Z"/><path d="M671.9,247.19l11.44-30.92,7,2.58a9.43,9.43,0,0,1,4.45,3.3,7.26,7.26,0,0,1,1.3,4.82,11.91,11.91,0,0,1-.77,3.45,7.77,7.77,0,0,1-3.5,4.37,4.9,4.9,0,0,1-2.07.6,5.79,5.79,0,0,1,1.77,3.32,9.87,9.87,0,0,1-.07,3.45,13.1,13.1,0,0,1-.62,2.21,11,11,0,0,1-3,4.57,7.12,7.12,0,0,1-3.39,1.66,7,7,0,0,1-3.92-.22Zm6.73-2.75,2,.72a3.52,3.52,0,0,0,4.18-1.23,5.59,5.59,0,0,0,1-1.8,6.3,6.3,0,0,0,.42-4.14,3.41,3.41,0,0,0-2.22-2.05l-2-.72Zm5.07-13.69,1.94.73a3.06,3.06,0,0,0,3.7-1,6.37,6.37,0,0,0,1-1.85,4.36,4.36,0,0,0,.14-3.25,3.16,3.16,0,0,0-1.91-1.75l-1.95-.72Z"/><path d="M721.37,232c2.5,1.19,4,2.76,4.51,4.69a8.38,8.38,0,0,1-.86,5.77L723,246.73a7.69,7.69,0,0,1-5,4.19l-2.89,14.56-4.85-2.32,2.64-12.49-.4-.19-2.58-1.24-5.37,11.19-4.48-2.15,14.23-29.71Zm-.75,8.44q1.23-2.6-1.32-3.81l-2.71-1.3L712,244.8l2.7,1.3a2.76,2.76,0,0,0,2.18.11,2.79,2.79,0,0,0,1.62-1.47Z"/><path d="M736.19,268.54l-4.93,5.87-4.44-2.66,21.74-25.38,5.86,3.51L742.23,281l-4.49-2.68,2.9-7.1Zm11.4-14-8.25,10.19,3.15,1.89Z"/><path d="M777.33,265.11l-7.81,21.75L782.64,269l4,2.94-19.52,26.58-4.31-3.17,7-21.05-12.5,17-4-2.94,19.52-26.57Z"/><path d="M794.7,311.62a7.65,7.65,0,0,1-5.41,2.66,7.48,7.48,0,0,1-5.66-1.93l-5.85-5.18,21.85-24.68,5.85,5.17a7.44,7.44,0,0,1,2.61,5.4,7.62,7.62,0,0,1-2,5.67Zm-9.94-4.83,2.24,2a2.67,2.67,0,0,0,2.07.68,2.78,2.78,0,0,0,1.94-1l11.43-12.91a2.87,2.87,0,0,0-.2-4l-2.25-2Z"/><path d="M334.87,825.48l-9.05,10.62L322,832.88,343.4,807.8l3.78,3.23-9.07,10.65,4.57,3.88,9.07-10.64,3.78,3.22-21.37,25.08L330.38,840l9.06-10.62Z"/><path d="M351.07,856.11l-4-2.94,19.48-26.57,4,2.94Z"/><path d="M370.81,869.91a7.88,7.88,0,0,1-2.5-10.85l9.55-15.24a7.88,7.88,0,0,1,10.87-2.49,7.86,7.86,0,0,1,2.47,10.86l-2,3.18-4.37-2.73,2.05-3.28a2.78,2.78,0,0,0,.37-2.16,2.81,2.81,0,0,0-1.27-1.79,2.68,2.68,0,0,0-2.15-.35,2.76,2.76,0,0,0-1.78,1.27l-9.59,15.29a2.84,2.84,0,0,0,.9,3.91,2.83,2.83,0,0,0,2.16.37,2.72,2.72,0,0,0,1.78-1.25l3.44-5.49-2.34-1.46,2.65-4.24,6.71,4.21-6.12,9.76a7.86,7.86,0,0,1-10.84,2.48Z"/><path d="M402.87,871.71l-6.35,12.44-4.42-2.26,15-29.35,4.42,2.26-6.35,12.46,5.34,2.72,6.35-12.46,4.43,2.26-15,29.35-4.42-2.26,6.34-12.44Z"/><path d="M464.51,903.47a7.8,7.8,0,0,1-2.19,3.45,2.38,2.38,0,0,0,1.58,1.29l-1.39,4.42c-2.37-.75-3.76-2-4.16-3.77a7.45,7.45,0,0,1-3.71-.22,7.87,7.87,0,0,1-5.15-9.89l5.39-17.16a7.89,7.89,0,0,1,9.89-5.16,7.51,7.51,0,0,1,4.62,3.9,7.61,7.61,0,0,1,.51,6Zm.51-18.8a2.74,2.74,0,0,0-.2-2.17,2.81,2.81,0,0,0-1.68-1.4,2.83,2.83,0,0,0-3.56,1.86l-5.41,17.2a2.73,2.73,0,0,0,.18,2.17,2.76,2.76,0,0,0,1.67,1.4,2.8,2.8,0,0,0,2.18-.19,2.74,2.74,0,0,0,1.41-1.66Z"/><path d="M485.83,917a7.8,7.8,0,0,1-6-9.34l5.48-24.89,4.75,1-5.47,24.83a2.66,2.66,0,0,0,.38,2.14,2.8,2.8,0,0,0,1.8,1.25,2.76,2.76,0,0,0,2.15-.38,2.79,2.79,0,0,0,1.24-1.78L495.65,885l5.05,1.12L495.23,911a7.54,7.54,0,0,1-3.47,5A7.71,7.71,0,0,1,485.83,917Z"/><path d="M516.25,914.31l-2.16,7.36L509,921l9.76-32,6.78.88,1.27,33.38-5.19-.67L521.4,915ZM521.12,897l-3.49,12.65,3.65.47Z"/><path d="M556.7,925.13l-13.52-.55,1.33-32.92,5,.2-1.14,28,8.56.35Z"/><path d="M576.64,925l-5,.13-.82-32.93,5-.13Z"/><path d="M595,895.9l-5.26.51-.48-5L604.72,890l.48,5-5.24.5,2.67,27.83-4.94.47Z"/><path d="M627.38,905.83l-10.06-17.62,5.37-1,5.79,11,1.42-12.31,5.4-1-3,20.06,2.54,13.57-4.89.92Z"/><path d="M684.1,905.35l-11.48-30.91,7-2.59a9.52,9.52,0,0,1,5.52-.39,7.16,7.16,0,0,1,4.13,2.82,11.17,11.17,0,0,1,1.66,3.11,7.71,7.71,0,0,1,.2,5.59,4.86,4.86,0,0,1-1.18,1.81,5.76,5.76,0,0,1,3.51,1.36,9.69,9.69,0,0,1,2.19,2.67,11.86,11.86,0,0,1,1,2.08,11,11,0,0,1,.74,5.39,7,7,0,0,1-1.49,3.47,7.18,7.18,0,0,1-3.12,2.39Zm-1.77-20.16,1.95-.72a3,3,0,0,0,2.12-3.19,6.46,6.46,0,0,0-.45-2,4.34,4.34,0,0,0-2-2.56,3.09,3.09,0,0,0-2.58-.08l-1.94.72Zm5.08,13.69,2-.73a3.51,3.51,0,0,0,2.37-3.65,5.68,5.68,0,0,0-.4-2,6.26,6.26,0,0,0-2.38-3.4,3.4,3.4,0,0,0-3-.12l-1.94.73Z"/><path d="M708,859.91q3.75-1.8,6.49-.57a8.27,8.27,0,0,1,3.95,4.28l2.07,4.31a7.74,7.74,0,0,1,.17,6.49l9.54,11.37-4.85,2.33-8.08-9.89-.41.19-2.58,1.25,5.37,11.18L715.15,893,700.9,863.3Zm6.11,5.87a2.52,2.52,0,0,0-3.8-1.35l-2.7,1.29,4.57,9.51,2.69-1.3a2.7,2.7,0,0,0,1.45-1.62,2.74,2.74,0,0,0-.13-2.19Z"/><path d="M746.12,868.33l2.85,7.12-4.44,2.65L732.41,847l5.87-3.51,21.66,25.43-4.49,2.69-4.89-5.9ZM739.2,851.7l5.09,12.09,3.16-1.9Z"/><path d="M758.75,829.81l18.41,14-13.09-17.87,4-2.94,19.48,26.59-4.3,3.16-18-13,12.48,17-4,2.94-19.49-26.59Z"/><path d="M807.06,822.82a7.65,7.65,0,0,1,2,5.7,7.46,7.46,0,0,1-2.61,5.38l-5.85,5.16-21.81-24.73,5.86-5.16a7.41,7.41,0,0,1,5.68-1.92,7.65,7.65,0,0,1,5.38,2.65Zm-6,9.27,2.25-2a2.66,2.66,0,0,0,.93-2,2.86,2.86,0,0,0-.71-2l-11.41-12.94a2.81,2.81,0,0,0-2-1,2.68,2.68,0,0,0-2,.69l-2.24,2Z"/><polygon points="563.24 273.25 571.44 298.5 598 298.5 576.51 314.11 584.72 339.37 563.24 323.76 541.75 339.37 549.95 314.11 528.47 298.5 555.03 298.5 563.24 273.25"/><polygon points="563.24 772.46 571.44 797.71 598 797.71 576.51 813.32 584.72 838.58 563.24 822.97 541.75 838.58 549.95 813.32 528.47 797.71 555.03 797.71 563.24 772.46"/><path d="M561,1002.53c-243.46,0-441.53-198.07-441.53-441.53S317.54,119.47,561,119.47,1002.53,317.54,1002.53,561,804.46,1002.53,561,1002.53Zm0-866.32c-234.23,0-424.79,190.56-424.79,424.79S326.77,985.79,561,985.79,985.78,795.23,985.78,561,795.22,136.21,561,136.21Z"/><path d="M561,963.45c-221.92,0-402.46-180.53-402.46-402.45S339.08,158.54,561,158.54,963.45,339.08,963.45,561,782.91,963.45,561,963.45Zm0-794.86c-216.37,0-392.41,176-392.41,392.41S344.63,953.41,561,953.41,953.41,777.38,953.41,561,777.37,168.59,561,168.59Z"/><rect x="255.67" y="386.84" width="619.44" height="6.7"/><rect x="255.67" y="728.46" width="619.44" height="6.7"/></g></svg>