<?xml version="1.0" encoding="utf-8"?>
<!-- Generator: Adobe Illustrator 24.0.2, SVG Export Plug-In . SVG Version: 6.00 Build 0)  -->
<svg version="1.1" id="Capa_1" xmlns="http://www.w3.org/2000/svg" xmlns:xlink="http://www.w3.org/1999/xlink" x="0px" y="0px"
	 viewBox="0 0 595.28 184.25" style="enable-background:new 0 0 595.28 184.25;" xml:space="preserve">
<style type="text/css">
	.st0{fill:#F49739;}
</style>
<path class="st0" d="M313.35,181.11c-48.51,0-87.97-39.46-87.97-87.97s39.46-87.97,87.97-87.97s87.97,39.46,87.97,87.97
	S361.85,181.11,313.35,181.11z M313.35,15.64c-42.73,0-77.5,34.76-77.5,77.5s34.76,77.5,77.5,77.5s77.5-34.76,77.5-77.5
	S356.08,15.64,313.35,15.64z"/>
<polygon class="st0" points="17.36,170.63 93.63,25.89 169.89,170.63 83.71,170.63 83.71,181.11 187.25,181.11 93.63,3.42 0,181.11 
	11.12,181.11 "/>
<polygon class="st0" points="462.83,1.39 462.83,104.19 473.3,104.19 473.3,19.42 576.56,78.27 473.3,159.46 462.83,168.3 
	462.83,181.02 595.28,76.88 "/>
<rect x="253.12" y="56.7" transform="matrix(0.7071 -0.7071 0.7071 0.7071 48.595 239.4565)" class="st0" width="120.46" height="8.73"/>
<rect x="241.6" y="109.31" transform="matrix(0.7071 -0.7071 0.7071 0.7071 8.0202 246.7184)" class="st0" width="120.46" height="8.73"/>
</svg>
