<svg id="Слой_1" data-name="Слой 1" xmlns="http://www.w3.org/2000/svg" xmlns:xlink="http://www.w3.org/1999/xlink" viewBox="0 0 3157.2 2332.53"><defs><style>.cls-1,.cls-12,.cls-15,.cls-21,.cls-22,.cls-23,.cls-24,.cls-25,.cls-27,.cls-29,.cls-3,.cls-31,.cls-9{fill:none;}.cls-2{fill:#fff;}.cls-3{stroke:#ded8d5;stroke-width:1.97px;}.cls-12,.cls-24,.cls-3,.cls-31{stroke-miterlimit:10;}.cls-4{fill:#ffb1a5;}.cls-5{fill:#ead254;}.cls-6{fill:#00857b;}.cls-7{fill:#ededed;}.cls-8{fill:#ff265a;}.cls-12,.cls-31,.cls-9{stroke:#fff;}.cls-15,.cls-21,.cls-22,.cls-25,.cls-27,.cls-29,.cls-30,.cls-9{stroke-linecap:round;stroke-linejoin:round;}.cls-9{stroke-width:1.65px;}.cls-10{fill:#40c930;}.cls-11{fill:#56dfed;}.cls-12{stroke-width:1.18px;}.cls-13{clip-path:url(#clip-path);}.cls-14{fill:#8e716c;}.cls-15,.cls-21,.cls-22,.cls-25,.cls-27,.cls-29,.cls-30{stroke:#282828;}.cls-15{stroke-width:1.23px;}.cls-16{fill:#f3978e;}.cls-17{fill:#372f5f;}.cls-18{fill:#261b43;}.cls-19{fill:#e6e6e6;}.cls-20{fill:#282828;}.cls-21{stroke-width:0.99px;}.cls-22{stroke-width:1.23px;}.cls-23,.cls-24{stroke:#c98bd2;}.cls-23{stroke-miterlimit:10;stroke-width:1.34px;}.cls-24{stroke-width:1.34px;}.cls-25{stroke-width:1.23px;}.cls-26{fill:#005683;}.cls-27,.cls-30{stroke-width:1.4px;}.cls-28,.cls-30{fill:#ef7d00;}.cls-29{stroke-width:1.53px;}.cls-31{stroke-width:1.95px;}</style><clipPath id="clip-path" transform="translate(-86.52 -20.96)"><rect class="cls-1" x="657.08" y="345.96" width="2257.81" height="1635.48"/></clipPath></defs><title>nosotros</title><path class="cls-2" d="M471,750.7a21.68,21.68,0,1,1-21.68,21.67A21.69,21.69,0,0,1,471,750.7Zm0-9.26a30.94,30.94,0,1,0,30.93,30.93A30.93,30.93,0,0,0,471,741.44Z" transform="translate(-86.52 -20.96)"/><line class="cls-3" x1="344.42" y1="606.5" x2="2799.36" y2="606.5"/><path class="cls-3" d="M2853.83,1985.42H463a32.06,32.06,0,0,1-32.05-32.05V498.6A32.05,32.05,0,0,1,463,466.55H2853.83a32.06,32.06,0,0,1,32.05,32.05V1953.37A32.06,32.06,0,0,1,2853.83,1985.42Z" transform="translate(-86.52 -20.96)"/><path class="cls-4" d="M592.73,548.65a22.47,22.47,0,1,1-22.47-22.47A22.45,22.45,0,0,1,592.73,548.65Z" transform="translate(-86.52 -20.96)"/><path class="cls-5" d="M680,548.65a22.47,22.47,0,1,1-22.47-22.47A22.49,22.49,0,0,1,680,548.65Z" transform="translate(-86.52 -20.96)"/><path class="cls-6" d="M767.3,548.65a22.47,22.47,0,1,1-22.47-22.47A22.49,22.49,0,0,1,767.3,548.65Z" transform="translate(-86.52 -20.96)"/><path class="cls-7" d="M3204.78,1169.5h-577a29.43,29.43,0,0,1-29.44-29.45V606.46A29.43,29.43,0,0,1,2627.83,577h577a29.44,29.44,0,0,1,29.45,29.45v533.59A29.44,29.44,0,0,1,3204.78,1169.5Z" transform="translate(-86.52 -20.96)"/><path class="cls-3" d="M3204.78,1169.5h-577a29.43,29.43,0,0,1-29.44-29.45V606.46A29.43,29.43,0,0,1,2627.83,577h577a29.44,29.44,0,0,1,29.45,29.45v533.59A29.44,29.44,0,0,1,3204.78,1169.5Z" transform="translate(-86.52 -20.96)"/><path class="cls-8" d="M2767.3,1015.38h299.88a29.6,29.6,0,0,0,29.6-29.6V740a29.59,29.59,0,0,0-29.6-29.59H2767.3A29.59,29.59,0,0,0,2737.71,740V985.78A29.62,29.62,0,0,0,2767.3,1015.38Z" transform="translate(-86.52 -20.96)"/><polygon class="cls-9" points="2912.63 892.66 2772.28 892.66 2746.96 892.66 2746.96 781.51 2912.63 781.51 2912.63 809.28 2912.63 892.66"/><polyline class="cls-9" points="2746.96 781.51 2829.79 846.79 2912.63 781.51"/><path class="cls-7" d="M665.78,1616.32H115.57a28.06,28.06,0,0,1-28.07-28.07V1108.54a28.06,28.06,0,0,1,28.07-28.07H665.83a28.06,28.06,0,0,1,28.07,28.07v479.71A28.1,28.1,0,0,1,665.78,1616.32Z" transform="translate(-86.52 -20.96)"/><path class="cls-3" d="M665.78,1616.32H115.57a28.06,28.06,0,0,1-28.07-28.07V1108.54a28.06,28.06,0,0,1,28.07-28.07H665.83a28.06,28.06,0,0,1,28.07,28.07v479.71A28.1,28.1,0,0,1,665.78,1616.32Z" transform="translate(-86.52 -20.96)"/><path class="cls-10" d="M531.91,1513.08H246.58a32.62,32.62,0,0,1-32.64-32.64V1204.85a32.62,32.62,0,0,1,32.64-32.65H532a32.63,32.63,0,0,1,32.65,32.65v275.59A32.7,32.7,0,0,1,531.91,1513.08Z" transform="translate(-86.52 -20.96)"/><path class="cls-2" d="M321.31,1275.74c-38.49,38.49-38.49,101.71,0,140.2s101.71,38.49,140.21,0,38.49-101.71,0-140.2S359.8,1237.24,321.31,1275.74Zm140,14.25H429.66a196.33,196.33,0,0,0-12.29-29.79A89.88,89.88,0,0,1,461.27,1290ZM355,1340a158.57,158.57,0,0,1,4.72-38.45h63.42a163.14,163.14,0,0,1,4.72,38.45Zm72.42,11.6a188.17,188.17,0,0,1-6.84,38.44h-58.4a187.47,187.47,0,0,1-6.83-38.44Zm-36-95.27a93.7,93.7,0,0,1,14,1.08A180.4,180.4,0,0,1,419.78,1290H363a184.65,184.65,0,0,1,14.35-32.54A94.37,94.37,0,0,1,391.41,1256.37Zm-26,3.83A204.89,204.89,0,0,0,353.12,1290H321.51A89.88,89.88,0,0,1,365.41,1260.2Zm-51.77,41.39h36.18a172,172,0,0,0-5.06,38.45H302.14A88.75,88.75,0,0,1,313.64,1301.59Zm0,88.44a88.71,88.71,0,0,1-11.5-38.44h42.77a186.28,186.28,0,0,0,6,38.44Zm7.87,11.61h32.88a243.31,243.31,0,0,0,12.25,30.13A89.33,89.33,0,0,1,321.51,1401.64Zm69.9,33.62a90.3,90.3,0,0,1-11.7-.74,272.29,272.29,0,0,1-13.86-32.83H417a264.24,264.24,0,0,1-13.87,32.83A92,92,0,0,1,391.41,1435.26Zm24.78-3.49a241.69,241.69,0,0,0,12.24-30.13h32.89A89.84,89.84,0,0,1,416.19,1431.77ZM469.14,1390H431.82a186.3,186.3,0,0,0,6.05-38.44h42.77A88.77,88.77,0,0,1,469.14,1390Zm11.5-50H438a174.91,174.91,0,0,0-5.07-38.45h36.19A89,89,0,0,1,480.64,1340Z" transform="translate(-86.52 -20.96)"/><path class="cls-8" d="M633,326.39H134.5a18.65,18.65,0,0,1-18.63-18.63h0a18.65,18.65,0,0,1,18.63-18.63H633a18.65,18.65,0,0,1,18.63,18.63h0A18.59,18.59,0,0,1,633,326.39Z" transform="translate(-86.52 -20.96)"/><path class="cls-11" d="M3225.09,1544h-242a18.65,18.65,0,0,1-18.63-18.64h0a18.65,18.65,0,0,1,18.63-18.63h242a18.65,18.65,0,0,1,18.63,18.63h0A18.59,18.59,0,0,1,3225.09,1544Z" transform="translate(-86.52 -20.96)"/><path class="cls-8" d="M3055.63,1759.72h-29.54a14.05,14.05,0,0,1-14.06-14.06v-27.77a14.05,14.05,0,0,1,14.06-14.06h29.54a14.05,14.05,0,0,1,14.06,14.06v27.77A14,14,0,0,1,3055.63,1759.72Z" transform="translate(-86.52 -20.96)"/><path class="cls-10" d="M253.27,1888.92H223.73a14.06,14.06,0,0,1-14.06-14.06v-27.78A14.05,14.05,0,0,1,223.73,1833h29.54a14.05,14.05,0,0,1,14.06,14.06v27.78A14.06,14.06,0,0,1,253.27,1888.92Z" transform="translate(-86.52 -20.96)"/><path class="cls-10" d="M2516,307.12H2024a14.82,14.82,0,0,1-14.8-14.8V172.17a14.81,14.81,0,0,1,14.8-14.79h492a14.81,14.81,0,0,1,14.8,14.79V292.32A14.79,14.79,0,0,1,2516,307.12Z" transform="translate(-86.52 -20.96)"/><line class="cls-12" x1="1993.72" y1="189.76" x2="2343.64" y2="189.76"/><line class="cls-12" x1="1993.72" y1="225.7" x2="2136.23" y2="225.7"/><polygon class="cls-10" points="1979.46 269.2 1979.46 327.56 2052.86 269.2 1979.46 269.2"/><path class="cls-11" d="M1307.18,316H1069a41.86,41.86,0,0,1-41.89-41.89V52.71A31.74,31.74,0,0,1,1058.87,21h248.31a31.74,31.74,0,0,1,31.76,31.75V284.26A31.75,31.75,0,0,1,1307.18,316Z" transform="translate(-86.52 -20.96)"/><path class="cls-2" d="M1255.81,190.31l-17.75-17.74a15.53,15.53,0,0,0-11.41-5.41,16.46,16.46,0,0,0-11.4,5.06l-10.13,10.13c-.64-.29-1.28-.64-1.92-.93a32.74,32.74,0,0,1-3.19-1.58c-9.49-6-18.09-14-26.3-24.09a60.12,60.12,0,0,1-8.26-13c2.56-2.22,4.77-4.77,7-7l2.85-2.86c3.49-3.49,5.41-7.62,5.41-11.75s-1.92-8.25-5.41-11.74l-8.9-8.9a32.13,32.13,0,0,1-2.85-3.15l-6-6.05a16.46,16.46,0,0,0-11.4-5.06,15.67,15.67,0,0,0-11.41,5.06l-11.11,11.11a25.43,25.43,0,0,0-7.27,15.54c-.64,9.49,1.92,18.39,4.13,24.09,5.06,14.6,13,27.58,24.73,41.54a153.39,153.39,0,0,0,50.73,39.62c7.27,3.49,17.45,7.62,28.51,8.56h2.21a25.14,25.14,0,0,0,19-8.26l.29-.3a49.53,49.53,0,0,1,5.71-5.7l4.13-4.13C1262.44,206.49,1262.44,197,1255.81,190.31Zm-7.33,16.47-3.78,3.79c-2.22,1.92-4.13,4.13-6.35,6.34a15,15,0,0,1-11.4,4.77h-1.57c-9.49-.64-18.39-4.43-24.73-7.62a144.35,144.35,0,0,1-47.25-37.12c-10.76-13-18.09-25.36-23.15-38.34-3.2-7.62-4.42-13.62-3.79-19.67a13.35,13.35,0,0,1,4.43-9.19L1141.65,99a6.76,6.76,0,0,1,4.43-2.21A6,6,0,0,1,1150.5,99l5.71,5.71a37.34,37.34,0,0,0,3.14,3.19l8.9,8.9a7.49,7.49,0,0,1,2.21,4.42,6.64,6.64,0,0,1-2.21,4.43l-2.85,2.85-7.92,7.92-.29.29c-3.15,3.15-2.56,6-1.92,7.92v.29c2.21,5.7,5.7,10.77,10.47,17.11a117.19,117.19,0,0,0,28.86,26.3,28.64,28.64,0,0,0,4.13,2.21,28.83,28.83,0,0,1,3.15,1.57l.29.3a7.39,7.39,0,0,0,8.9-1.57l11.11-11.11a6.7,6.7,0,0,1,4.42-2.22c1.58,0,3.15,1.28,4.13,2.22l17.75,17.74C1251.33,200.44,1251.33,203.64,1248.48,206.78Z" transform="translate(-86.52 -20.96)"/><g class="cls-13"><path class="cls-14" d="M2343.24,1433.25l-179.43-23.9,1.42,17.8L2011.8,1447.6s-98.91,248.12-11.75,793.75h124.82l44.93-553.3h15.93l43.51,553.3h124.82C2441.17,1695.72,2343.24,1433.25,2343.24,1433.25Z" transform="translate(-86.52 -20.96)"/><line class="cls-15" x1="2026.16" y1="1667.09" x2="2156.39" y2="1667.09"/><path class="cls-4" d="M2448,1171.51c-15.33-24.48-101.56-23.64-106.13-24.18-23.31-2.76,14.94,182.78,63.46,345a54.46,54.46,0,0,0,73.4,34.61,8.07,8.07,0,0,1,1-.4,54.56,54.56,0,0,0,32.35-60.32C2489,1343.77,2465.75,1199.83,2448,1171.51Z" transform="translate(-86.52 -20.96)"/><polygon class="cls-16" points="2382.04 1217.61 2271.97 1260.33 2261.64 1208.13 2375.64 1179.66 2382.04 1217.61"/><path class="cls-16" d="M2489.35,1343.09s-52.16,70.05-49.65,66.8,40.9-113.21,40.9-113.21Z" transform="translate(-86.52 -20.96)"/><path class="cls-4" d="M2563.93,1248.94l-149.5,193.7a55,55,0,0,0,13.57,79.69h0a55,55,0,0,0,78.26-19.91l124.43-229.59Z" transform="translate(-86.52 -20.96)"/><path class="cls-4" d="M2602.66,1298.69a61.66,61.66,0,1,1,77.63-39.72A61.66,61.66,0,0,1,2602.66,1298.69Z" transform="translate(-86.52 -20.96)"/><path class="cls-4" d="M2666.57,1202.93s16.86-17.5-13.07-29.79-67-9.49-90.61,47.93Z" transform="translate(-86.52 -20.96)"/><path class="cls-17" d="M2697.59,1080.52l62.58,27.13c3.5,1.53,4.77,5.66,2.86,9.25l-82.35,153.82a7.85,7.85,0,0,1-9.78,3.74l-62.58-27.14c-3.49-1.52-4.77-5.65-2.85-9.24l82.34-153.83A7.84,7.84,0,0,1,2697.59,1080.52Z" transform="translate(-86.52 -20.96)"/><path class="cls-18" d="M2691.6,1077.76l62.58,27.14c3.49,1.53,4.77,5.65,2.85,9.24L2674.68,1268a7.83,7.83,0,0,1-9.78,3.73l-62.58-27.13c-3.49-1.53-4.77-5.66-2.85-9.25l82.34-153.82A8,8,0,0,1,2691.6,1077.76Z" transform="translate(-86.52 -20.96)"/><polygon class="cls-19" points="2598.05 1072.49 2653.01 1096.33 2585.91 1221.69 2530.89 1197.85 2598.05 1072.49"/><polygon class="cls-2" points="2653.01 1096.33 2530.89 1197.85 2598.05 1072.49 2653.01 1096.33"/><path class="cls-4" d="M2635.55,1168a99.05,99.05,0,0,1,26.5,9.84,14.14,14.14,0,0,1,6.83,15.73h0a14.06,14.06,0,0,1-11.89,10.57l-32.55,4.08s-17,29.25-39.18,32.54l20.35-51.37Z" transform="translate(-86.52 -20.96)"/><path class="cls-11" d="M2219.9,927.58c-3.59,0,230.81,32.44,269.45,299.63l-121.63,18.64-24.53,201.75h-339.3l-67.35-372.74s75.16-107.71,214.73-147.28Z" transform="translate(-86.52 -20.96)"/><line class="cls-15" x1="2281.21" y1="1224.89" x2="2291.78" y2="1108.23"/><path class="cls-4" d="M2242.17,931.36V838.55H2133.38v93.9c-5.56,1.67-14.85,5-29.21,11.84L2189,994.83l86.71-50.54A146.07,146.07,0,0,0,2242.17,931.36Z" transform="translate(-86.52 -20.96)"/><path class="cls-20" d="M2132.39,849.9s19.52,51.87,71.68,47.4c47.93-4.13,40.31-76,40.31-76Z" transform="translate(-86.52 -20.96)"/><path class="cls-16" d="M2085,780.93c-17.06,15.49-55.16-43.21-38.69-59.68s29.06,9.39,29.06,9.39l7.37,17.5,5.56,23.7,1.32,6.19Z" transform="translate(-86.52 -20.96)"/><path class="cls-21" d="M2054.23,742.05s12.93-5.81,24.38,12.88" transform="translate(-86.52 -20.96)"/><path class="cls-16" d="M2286.56,779.16c15.68,16.86,58.65-38.39,43.61-56.19s-29.75,6.88-29.75,6.88l-8.8,16.82-7.52,23.15-1.82,6.1Z" transform="translate(-86.52 -20.96)"/><path class="cls-21" d="M2320.48,743s-12.39-6.88-25.37,10.82" transform="translate(-86.52 -20.96)"/><path class="cls-20" d="M2055.06,665.31c0,77.62,59.19,114.44,132.24,114.44s132.25-36.82,132.25-114.44-59.19-130.48-132.25-130.48S2055.06,587.68,2055.06,665.31Z" transform="translate(-86.52 -20.96)"/><path class="cls-4" d="M2073,670.71a529.67,529.67,0,0,0,13.47,118c6.58,28.56,25.12,48.57,51.27,64.65l4.77,2.95a90,90,0,0,0,91.59,1h0c28.36-16.52,48.22-38.35,54.32-69,11.11-55.8,12.34-117.55,12.34-117.55s10.57-120.34-112.24-118S2073,670.71,2073,670.71Z" transform="translate(-86.52 -20.96)"/><path class="cls-22" d="M2179.44,739.39v16.67a7.79,7.79,0,0,0,.54,2.8,7.46,7.46,0,0,0,8.85,4.08l7.62-2" transform="translate(-86.52 -20.96)"/><path class="cls-20" d="M2159.92,674.79l-61.06,14.31s2.76-15.54,27.73-21.19S2159.92,674.79,2159.92,674.79Z" transform="translate(-86.52 -20.96)"/><path class="cls-20" d="M2214.1,674.79,2273,689.1s-2.65-15.54-26.79-21.19S2214.1,674.79,2214.1,674.79Z" transform="translate(-86.52 -20.96)"/><circle class="cls-20" cx="2050.2" cy="698.67" r="10.27"/><path class="cls-20" d="M2244.63,719.63a10.28,10.28,0,1,1-10.28-10.28A10.31,10.31,0,0,1,2244.63,719.63Z" transform="translate(-86.52 -20.96)"/><path class="cls-2" d="M2147,782.31h79.4C2226.39,782.31,2191.24,825.08,2147,782.31Z" transform="translate(-86.52 -20.96)"/><circle class="cls-23" cx="2045.87" cy="702.71" r="43.75"/><circle class="cls-23" cx="2153.43" cy="702.69" r="43.75"/><path class="cls-24" d="M2176.19,723.66s10.38-9.68,20,0" transform="translate(-86.52 -20.96)"/><line class="cls-24" x1="2002.12" y1="702.7" x2="1988.31" y2="702.31"/><line class="cls-24" x1="2197.19" y1="702.7" x2="2211.06" y2="702.31"/><path class="cls-20" d="M2299.19,710.58s-49.11-66.36-37.8-133.67c0,0,36.43,18.34,46,65.68S2299.19,710.58,2299.19,710.58Z" transform="translate(-86.52 -20.96)"/><path class="cls-20" d="M2073,715.11s57-75.42,45.72-142.67c0,0-39.58,22.86-49.07,70.2S2073,715.11,2073,715.11Z" transform="translate(-86.52 -20.96)"/><path class="cls-20" d="M2295.06,603.46s-63.07,69-235.57,57.22c0,0,26.4-101.32,110-112.08C2169.51,548.55,2266.06,537.05,2295.06,603.46Z" transform="translate(-86.52 -20.96)"/><circle class="cls-20" cx="2290.74" cy="522.83" r="82.39" transform="translate(214.73 1751.98) rotate(-45)"/><path class="cls-20" d="M1285.11,1433.05l-153.43-20.45,1.42-17.85-179.44,23.9s-97.92,262.46-10.76,808.1h124.82l43.5-553.3h15.93l44.94,553.3H1296.9C1384,1681.16,1285.11,1433.05,1285.11,1433.05Z" transform="translate(-86.52 -20.96)"/><path class="cls-20" d="M1272.87,686.59c-20.75-24.43-37.42-52.94-51.53-92.91-15.19-42.92-64.84-25.47-64.84-25.47s-41.39-53.24-103.68-34.7-83.92,62.87-85.19,115.57S924.91,710,893,771c-56.34,107.62,38.49,198.27,211.19,173.1l.25-1.67c17,5.16,37.85,7.42,63.27,5.9C1375.17,935.94,1355.16,783.39,1272.87,686.59Z" transform="translate(-86.52 -20.96)"/><path class="cls-16" d="M1204.92,766.38c17.06,15.49,55.16-43.21,38.69-59.68s-29,9.39-29,9.39l-7.37,17.5-5.56,23.7-1.33,6.19Z" transform="translate(-86.52 -20.96)"/><path class="cls-21" d="M1235.7,727.49s-12.93-5.8-24.38,12.88" transform="translate(-86.52 -20.96)"/><path class="cls-16" d="M1003.32,764.61c-15.69,16.86-58.65-38.39-43.61-56.19s29.74,6.88,29.74,6.88l8.8,16.82,7.52,23.15,1.82,6.1Z" transform="translate(-86.52 -20.96)"/><path class="cls-21" d="M969.4,728.43s12.38-6.88,25.36,10.81" transform="translate(-86.52 -20.96)"/><path class="cls-20" d="M1234.86,650.75c0,77.63-59.19,114.45-132.24,114.45S970.38,728.38,970.38,650.75s59.19-130.47,132.24-130.47S1234.86,573.13,1234.86,650.75Z" transform="translate(-86.52 -20.96)"/><rect class="cls-4" x="961.19" y="803.04" width="108.79" height="140.85"/><path class="cls-20" d="M1031.88,815.25s30.28,60.41,67.55,69.85a52.56,52.56,0,0,0,30.18-1.72c14-5,31.81-25.86,34.81-49l1.42-13.22S1099.48,857.23,1031.88,815.25Z" transform="translate(-86.52 -20.96)"/><path class="cls-4" d="M1216.87,656.16a529.67,529.67,0,0,1-13.47,118c-6.59,28.56-25.12,48.57-51.27,64.64l-4.77,3a90,90,0,0,1-91.59,1h0c-28.36-16.52-48.23-38.35-54.32-69C990.34,718,989.11,656.21,989.11,656.21s-10.57-120.34,112.23-118S1216.87,656.16,1216.87,656.16Z" transform="translate(-86.52 -20.96)"/><path class="cls-25" d="M1094.41,731.33v9.88a7.75,7.75,0,0,0,.54,2.8,7.45,7.45,0,0,0,8.85,4.08l7.62-2" transform="translate(-86.52 -20.96)"/><path class="cls-20" d="M1120,666.14l65.34,15.49s-2.95-16.82-29.69-22.91S1120,666.14,1120,666.14Z" transform="translate(-86.52 -20.96)"/><path class="cls-20" d="M1085.71,666.14l-66.17,15.49s3-16.82,30.09-22.91S1085.71,666.14,1085.71,666.14Z" transform="translate(-86.52 -20.96)"/><path class="cls-20" d="M1062,706.7a10.27,10.27,0,1,1-10.27-10.23A10.26,10.26,0,0,1,1062,706.7Z" transform="translate(-86.52 -20.96)"/><path class="cls-20" d="M1159.6,706.7a10.28,10.28,0,1,1-10.28-10.23A10.26,10.26,0,0,1,1159.6,706.7Z" transform="translate(-86.52 -20.96)"/><path class="cls-2" d="M1055.18,765.2h90.36S1139.15,790,1098.2,790C1067,790,1055.18,765.2,1055.18,765.2Z" transform="translate(-86.52 -20.96)"/><path class="cls-20" d="M990.68,696s49.11-66.37,37.81-133.67c0,0-36.43,18.34-46,65.68S990.68,696,990.68,696Z" transform="translate(-86.52 -20.96)"/><path class="cls-20" d="M1217,693.87s-57-68.68-45.72-135.93c0,0,39.57,22.86,49.06,70.2S1217,693.87,1217,693.87Z" transform="translate(-86.52 -20.96)"/><path class="cls-20" d="M994.81,588.91s56.34,75.76,228.89,63.91c0,0-19.71-108-103.33-118.77C1120.37,534.05,1023.82,522.49,994.81,588.91Z" transform="translate(-86.52 -20.96)"/><path class="cls-4" d="M837.55,1766.21c-2.51,3.93,143.6-635.65,100.24-626-4,.88-79.94,7.91-91.2,30.87-32.74,66.57-56.19,590.28-56.19,590.28Z" transform="translate(-86.52 -20.96)"/><path class="cls-4" d="M790.35,1761.35s-23.55,109.23,65.48,121.18a12.5,12.5,0,0,0,13.47-8.26l.25-.74a12.5,12.5,0,0,0-6.93-15.44c-14.5-6.49-37-22.91-25.86-60.12,0,0,12.88-1.57,20,22.42a10.31,10.31,0,0,0,14.5,6.39h0a10.36,10.36,0,0,0,5.61-10.57c-2.12-16.81-10.57-57.27-43-68.14Z" transform="translate(-86.52 -20.96)"/><path class="cls-16" d="M820.29,1324.8s84.16,118.52,84.61,116.26,29.44-166.46,29.44-166.46l-102.15-44.24Z" transform="translate(-86.52 -20.96)"/><path class="cls-6" d="M1054.2,941.69c3.59,0-208.05,3.78-246.74,271l121.62,18.63,24.54,201.76h339.3l67.35-372.74S1312.39,979.54,1172.82,940Z" transform="translate(-86.52 -20.96)"/><path class="cls-4" d="M950.76,974s29.89,39.72,152.45,39.72c121.43,0,152.45-41.79,152.45-41.79s-71.58-40-154.61-52.94C1101.05,919,1026.91,932.2,950.76,974Z" transform="translate(-86.52 -20.96)"/><polygon class="cls-26" points="1280.64 1799.58 1280.93 2332.53 1544.58 2332.53 1564.84 1799.58 1280.64 1799.58"/><polygon class="cls-26" points="1853.07 1799.58 1852.77 2332.53 1589.12 2332.53 1568.87 1799.58 1853.07 1799.58"/><rect class="cls-26" x="1436.48" y="1799.58" width="272.6" height="185.14"/><line class="cls-27" x1="1474.58" y1="1984.72" x2="1662.57" y2="1984.72"/><path class="cls-4" d="M2106.14,1355.47c16.37,180.57-.88,312.17,3.88,644.45l-157.36,6.59-23.45-622Z" transform="translate(-86.52 -20.96)"/><path class="cls-16" d="M1948.63,1496.37s97.44-8.9,164-52.85l-1.77-38.69L1948.53,1427Z" transform="translate(-86.52 -20.96)"/><path class="cls-28" d="M1792.3,939.67s309.51,77.82,365.61,470.72c0,0-151.47,65.68-303.28,37.41l34.17-131.41Z" transform="translate(-86.52 -20.96)"/><path class="cls-4" d="M867.78,1103l230.47,272.16L1027.7,1573.8S852.54,1330.25,773.83,1142Z" transform="translate(-86.52 -20.96)"/><path class="cls-4" d="M875.35,1112.87s-80.92,45.71-101.52,29.2c-36-28.91-65.67-134.7-65.67-134.7s151.31-57,149.89-54.82S875.35,1112.87,875.35,1112.87Z" transform="translate(-86.52 -20.96)"/><path class="cls-4" d="M875.35,1112.87c-1.42-8.17,30-96,40.8-129,2.61-8-2.9-16.67-11.5-18.34h0c-5.6-1.08-14.5-.39-18.73,7.67L848,1038.09Z" transform="translate(-86.52 -20.96)"/><path class="cls-4" d="M872.55,1017.84,846.49,888.2a16.33,16.33,0,0,0-18.87-12.93h0a14.07,14.07,0,0,0-11.56,15.59l11.36,96.55Z" transform="translate(-86.52 -20.96)"/><path class="cls-4" d="M820.73,970.05l-35.39-92.57a16.24,16.24,0,0,0-20.11-9.88h0A14,14,0,0,0,756,884.22l26.25,107Z" transform="translate(-86.52 -20.96)"/><path class="cls-4" d="M782.73,997.34l-44.78-91c-4.13-8.46-14.36-12.34-22.72-8.7h0a15.57,15.57,0,0,0-8,20.5l35.69,85.88Z" transform="translate(-86.52 -20.96)"/><path class="cls-4" d="M708.16,1007.37,673,951.62a12.56,12.56,0,0,1,6.14-16.81h0a14.33,14.33,0,0,1,17.55,5.11l46.21,64.1Z" transform="translate(-86.52 -20.96)"/><path class="cls-29" d="M865.47,1008.1s-52.75-5.55-58.21,64.8" transform="translate(-86.52 -20.96)"/><path class="cls-4" d="M981,1480.93s43.36,150,129.73,130.08,221-204.41,221-204.41l-30.13-315L1059.11,1390Z" transform="translate(-86.52 -20.96)"/><path class="cls-16" d="M1134.33,1297.27s81.85,123.44,151.66,167l45.72-57.67-176.29-136.37Z" transform="translate(-86.52 -20.96)"/><path class="cls-28" d="M1492.42,932.89s-240.3,54.17-368.36,333.46c0,0,77.37,116.56,201.41,168.37l83-101.71Z" transform="translate(-86.52 -20.96)"/><path class="cls-28" d="M1492.42,932c-93.85,48.13-152.89,112-152.89,112l18.53,816.36h591.55l-1.92-812.13s-74.57-73-155.39-108.55C1723.67,909.49,1559.13,897.79,1492.42,932Z" transform="translate(-86.52 -20.96)"/><path class="cls-30" d="M1772.29,1329.81h0a82.3,82.3,0,0,1-82.3-82.29v-82.3h164.55v82.3A82.2,82.2,0,0,1,1772.29,1329.81Z" transform="translate(-86.52 -20.96)"/><line class="cls-27" x1="1862.11" y1="1429.89" x2="1869.78" y2="1162.85"/><line class="cls-27" x1="1262.1" y1="1385.4" x2="1249.32" y2="1153.9"/><path class="cls-20" d="M1499.35,633.84l-24.68-122c-1.38-9.94-5.26-25.27-.54-39.68,7.82-23.84,36.53-69.61,85.59-48.67l10.62,48.28s-50.93,10.27-71.38,76.94Z" transform="translate(-86.52 -20.96)"/><path class="cls-20" d="M1556.13,448.7c-.89,16-15,86.18-64.79,111.7C1491.34,560.4,1447.78,467,1556.13,448.7Z" transform="translate(-86.52 -20.96)"/><path class="cls-4" d="M1730.6,909.54h0V702.37H1539.66V909.54l-56.83,25.9s13.32,85.84,154.32,87.76,155.15-83.53,155.15-83.53Z" transform="translate(-86.52 -20.96)"/><path class="cls-20" d="M1559.72,423.53s35-92.47,143.11-43.31c65.43,29.74,83.72,69.61,91.53,97.88,2.61,9.39,3.64,24.19,2.9,33l-26.15,122.75L1669.05,464l-98.76,7.82Z" transform="translate(-86.52 -20.96)"/><path class="cls-16" d="M1771.16,633.84s12.88-20.5,39.43-10.42,14.55,74.58-25.27,82.79c0,0-14.26,3.09-25.47-6.69C1759.8,699.57,1769.59,651.93,1771.16,633.84Z" transform="translate(-86.52 -20.96)"/><path class="cls-27" d="M1805.33,646.18s-22.23-7.42-38.06,25.32" transform="translate(-86.52 -20.96)"/><path class="cls-16" d="M1499.35,633.84s-12.88-20.5-39.43-10.42-14.55,74.58,25.27,82.79c0,0,14.26,3.09,25.47-6.69C1510.66,699.57,1500.87,651.93,1499.35,633.84Z" transform="translate(-86.52 -20.96)"/><path class="cls-27" d="M1465.18,646.18s22.22-7.42,38,25.32" transform="translate(-86.52 -20.96)"/><path class="cls-4" d="M1773.81,572.64c0,38.88-3.78,120.2-27.72,168.47-22.42,45.33-59.54,69.71-108.21,71.19s-84.9-17.31-114-76.15-27.68-162.82-27.68-162.82,0-138.88,137.26-138.88C1778.09,434.5,1773.81,572.64,1773.81,572.64Z" transform="translate(-86.52 -20.96)"/><path class="cls-20" d="M1541.09,765.15s16,81.17,86.62,90.46c81.26,10.71,102.89-88.39,102.89-88.39s-35.89,45-92.72,45.08C1574.56,812.39,1541.09,765.15,1541.09,765.15Z" transform="translate(-86.52 -20.96)"/><path class="cls-27" d="M1625.25,630.3v32.15a10.61,10.61,0,0,0,.74,3.94c1.91,4.77,7.37,7,12.34,5.7l10.66-2.85" transform="translate(-86.52 -20.96)"/><path class="cls-20" d="M1584.74,615a12.49,12.49,0,1,1-12.49-12.49A12.5,12.5,0,0,1,1584.74,615Z" transform="translate(-86.52 -20.96)"/><path class="cls-20" d="M1701.89,615a12.49,12.49,0,1,1-12.49-12.49A12.5,12.5,0,0,1,1701.89,615Z" transform="translate(-86.52 -20.96)"/><path class="cls-20" d="M1657.4,552.78l84,21.68s-3.84-23.55-38.2-32.15S1657.4,552.78,1657.4,552.78Z" transform="translate(-86.52 -20.96)"/><path class="cls-20" d="M1605.19,552.78l-84,21.68s3.83-23.55,38.19-32.15S1605.19,552.78,1605.19,552.78Z" transform="translate(-86.52 -20.96)"/><path class="cls-27" d="M1588.48,694.85s12.39,9.49,45,9.49c29.64,0,48.13-9.49,48.13-9.49" transform="translate(-86.52 -20.96)"/><circle class="cls-31" cx="1482.35" cy="597.65" r="53.09"/><circle class="cls-31" cx="1612.77" cy="597.65" r="53.09"/><path class="cls-31" d="M1622,618.6s12.58-11.75,24.23,0" transform="translate(-86.52 -20.96)"/><line class="cls-31" x1="1429.25" y1="597.65" x2="1411.46" y2="597.2"/><line class="cls-31" x1="1665.86" y1="597.65" x2="1685.77" y2="597.3"/><path class="cls-20" d="M1541.09,451.85s25.51,72.46,140.55,70.2c78.16-1.52,96.84,55.06,96.84,55.06s-13.61-126.49-17.2-125.26-119-30.77-119-30.77Z" transform="translate(-86.52 -20.96)"/></g></svg>