<svg xmlns="http://www.w3.org/2000/svg" xmlns:xlink="http://www.w3.org/1999/xlink" viewBox="0 0 3710 3710"><defs><style>.cls-1{fill:none;}.cls-2{isolation:isolate;}.cls-3,.cls-8{fill:#fff;}.cls-4{fill:#fc9;}.cls-5{fill:#bfc8d6;}.cls-6{fill:#d8dee8;}.cls-7{fill:url(#linear-gradient);}.cls-23,.cls-8{opacity:0.48;mix-blend-mode:soft-light;}.cls-9{fill:url(#linear-gradient-2);}.cls-10{clip-path:url(#clip-path);}.cls-11{fill:url(#linear-gradient-3);}.cls-12{fill:url(#linear-gradient-4);}.cls-13{opacity:0.3;mix-blend-mode:multiply;}.cls-14{fill:url(#linear-gradient-5);}.cls-15{fill:url(#linear-gradient-6);}.cls-16{fill:url(#linear-gradient-7);}.cls-17{fill:url(#linear-gradient-8);}.cls-18{fill:url(#linear-gradient-9);}.cls-19{fill:url(#linear-gradient-10);}.cls-20{fill:url(#linear-gradient-11);}.cls-21{fill:url(#linear-gradient-12);}.cls-22{fill:#f93;}</style><linearGradient id="linear-gradient" x1="1880.28" y1="2589.24" x2="-1101.82" y2="6569.06" gradientUnits="userSpaceOnUse"><stop offset="0" stop-color="#ffc444"/><stop offset="1" stop-color="#f36f56"/></linearGradient><linearGradient id="linear-gradient-2" x1="899.49" y1="3472.77" x2="3703.22" y2="3472.77" gradientUnits="userSpaceOnUse"><stop offset="0.49" stop-color="#ebeff2"/><stop offset="1" stop-color="#fff"/></linearGradient><clipPath id="clip-path"><path class="cls-1" d="M3158.71,2199.79H2301.49s24.7-959.55,22.72-934.49S1091.71,466.48,615,629.06-349.46,1875.21,349,2386.62s872.86-31.86,746.83,971.46l1500.75-102.21,613.93-797.15Z"/></clipPath><linearGradient id="linear-gradient-3" x1="369.84" y1="568.9" x2="278.89" y2="930.3" gradientTransform="matrix(-0.4, -0.92, -0.92, 0.4, 3664.42, 2400.71)" gradientUnits="userSpaceOnUse"><stop offset="0" stop-color="#ab316d"/><stop offset="1" stop-color="#792d3d"/></linearGradient><linearGradient id="linear-gradient-4" x1="-3021.3" y1="736.11" x2="-2119.41" y2="736.11" gradientTransform="matrix(-0.76, -0.65, -0.65, 0.76, 859.7, 356.39)" gradientUnits="userSpaceOnUse"><stop offset="0" stop-color="#ff9085"/><stop offset="1" stop-color="#fb6fbb"/></linearGradient><linearGradient id="linear-gradient-5" x1="-3021.3" y1="745.88" x2="-2117.82" y2="745.88" xlink:href="#linear-gradient-4"/><linearGradient id="linear-gradient-6" x1="-2597.52" y1="2883.76" x2="-1596.4" y2="2883.76" gradientTransform="matrix(-1, 0, 0, 1, -421.1, 0)" xlink:href="#linear-gradient-4"/><linearGradient id="linear-gradient-7" x1="-2467.76" y1="1521.39" x2="-549.08" y2="1521.39" gradientTransform="matrix(-1, 0, 0, 1, -421.1, 0)" gradientUnits="userSpaceOnUse"><stop offset="0" stop-color="#311944"/><stop offset="1" stop-color="#6b3976"/></linearGradient><linearGradient id="linear-gradient-8" x1="-2467.76" y1="1735.89" x2="-549.07" y2="1735.89" xlink:href="#linear-gradient-7"/><linearGradient id="linear-gradient-9" x1="-2191.43" y1="2598.93" x2="-2210.92" y2="1970.39" gradientTransform="matrix(-1, 0, 0, 1, -421.1, 0)" xlink:href="#linear-gradient-3"/><linearGradient id="linear-gradient-10" x1="-2321.85" y1="2148.03" x2="-2144.01" y2="1565.77" gradientTransform="matrix(-1, 0, 0, 1, -421.1, 0)" xlink:href="#linear-gradient-3"/><linearGradient id="linear-gradient-11" x1="-2597.52" y1="3099.97" x2="-1596.4" y2="3099.97" gradientTransform="matrix(-1, 0, 0, 1, -421.1, 0)" xlink:href="#linear-gradient-4"/><linearGradient id="linear-gradient-12" x1="2794.23" y1="1440.72" x2="2576.57" y2="1323.93" gradientTransform="matrix(1, 0, 0, 1, 0, 0)" xlink:href="#linear-gradient-4"/></defs><title>soporte1</title><g class="cls-2"><g id="Background"><rect class="cls-3" width="3710" height="3710"/></g><g id="Illustration"><path class="cls-4" d="M1697.77,18.31c-472.17,8.35-1202.72,187.87-1413,649.23-73.44,161.14-68.47,398-58.53,871.8,2.92,139.26,7.77,342.22,41.81,594.06,70.7,523.14,118.83,879.28,301,1086.65,456.44,519.61,2105.21,504.6,2809.29-430.88,384.07-510.3,443.16-1236.23,92-1836.17C3083.64,292.47,2329.9,7.15,1697.77,18.31Z"/><path class="cls-5" d="M2435.27,1321.34l15.53-34.21c5.83-12.82,2.37-28.22-7.73-34.42L2402.86,1228a443.25,443.25,0,0,0,22.36-97.26l44.88-3.14c11.57-.82,20.92-12.91,20.92-27v-37.52c0-14.11-9.35-25-20.92-24.36l-43.7,2.5a411.84,411.84,0,0,0-20.29-96.75l37-27.42a23.56,23.56,0,0,0,3.26-3l4.73,12.29,60.71-74.65-79.26-6.77a19.54,19.54,0,0,0-13.11-7.79,18.54,18.54,0,0,0-13.2,3.64l-36.51,26.54a334.49,334.49,0,0,0-60.25-72.22l2.75-5.74,55.8,11.4,7.08-92.38-84.74-14c-9.75-3.76-20.77,1-26.13,12.06l-21.06,43.44c-27.07-13.46-4.64-27.63-35.4-31.73l32.18-47.38c0-14.76-94.24-24.6-107-24.6h-34.07c-12.9,0-23.39,12.13-23.39,27.1V724a302.45,302.45,0,0,0-91.38,29.67l58.21-42.77s-102.52-19.42-114.19-11.72l-31.2,20.62c-11.8,7.79-15.85,24.86-9,38.06l23.59,45.67c-25.82,23-36.82,36.27-56.37,66.64l-54.81-12.38c-12.11-7.44-27.65-2.39-34.69,11.32l-18.78,36.58c-7.08,13.8-2.88,31,9.37,38.33l44.2,26.49a443.4,443.4,0,0,0-24.13,107.86l-53,3c-14.27.81-25.88,14.24-25.88,30v41.88c0,14.27,9.56,25.39,22,26.61h0l60.26,9.64a401.2,401.2,0,0,0,24.65,88.71l-48,34.91c-12.25,8.9-16.45,26.62-9.37,39.52l18.78,34.19c7,12.81,118.72,20.61,118.72,20.61l-35.46-49.74a321.59,321.59,0,0,0,67,67.08l-28,57.73c-6.83,14.07-2.78,30.62,9,36.91l31.2,16.64a20,20,0,0,0,6.14,2.08l-.13.58,97.33,12,9.53-73.46a278.69,278.69,0,0,0,34.49,3.12v62.84c0,11.17,5.85,20,14.18,23.1l-.43,1.84,96.43,12,1.93-119.15a318.52,318.52,0,0,0,50.9-24.76l25.71,49.74c3.19,6.18,8.4,9.85,14.14,10.77h0l93.19,12.62-31.92-87.84-12.88,4-21.23-41.64a398.33,398.33,0,0,0,59.11-75.21l41.59,24.93C2416.41,1339.77,2429.42,1334.24,2435.27,1321.34Zm-319.33-32.19c-91.23,8.13-166.91-71.92-166.91-179s75.68-196.63,166.91-200c89-3.25,159.54,77.13,159.54,179.46S2204.93,1281.23,2115.94,1289.15Zm389.68-205.58,63.13-29.88-63.13-7.67Zm-77.5,255,72.23,9.75,10.54-24.63-59.83-36.37Z"/><path class="cls-6" d="M2563.17,1052.58l-43.46,2.51a412.06,412.06,0,0,0-20.17-96.47l36.75-27.35c10-7.48,13.48-23.27,7.69-35.31l-15.44-32.14c-5.83-12.12-18.76-16-28.91-8.57l-36.3,26.47a333.32,333.32,0,0,0-59.92-72L2424.3,766c6-12.55,2.44-28.44-8-35.53l-27.8-19c-10.51-7.17-24-2.77-30.1,9.86l-21,43.33a274.92,274.92,0,0,0-86.67-26.62V688c0-14.76-10.23-26.72-22.89-26.71h-33.88c-12.83,0-23.26,12.11-23.26,27V739a300.13,300.13,0,0,0-90.85,29.62l-22.63-44.51c-6.66-13.08-21.43-17.48-33-9.79l-31,20.57c-11.73,7.78-15.76,24.79-9,38l23.46,45.52a390.18,390.18,0,0,0-68.09,80.3l-42.45-26.15c-12-7.41-27.49-2.37-34.49,11.3l-18.67,36.49c-7,13.76-2.86,30.89,9.32,38.21l43.94,26.4a443.22,443.22,0,0,0-24,107.55l-52.72,3c-14.19.82-25.73,14.21-25.73,29.91v41.76c0,15.7,11.54,27.61,25.73,26.6l54.12-3.83a403.23,403.23,0,0,0,26.41,101.79l-47.76,34.83c-12.18,8.88-16.36,26.55-9.32,39.41l18.67,34.08c7,12.78,22.45,15.83,34.49,6.87L1945.5,1371a319.89,319.89,0,0,0,66.62,66.85l-27.83,57.58c-6.79,14-2.76,30.53,9,36.8l31,16.59c11.6,6.2,26.37-.11,33-14l27.59-57.8a273.47,273.47,0,0,0,85.89,16.25v62.66c0,14.93,10.43,25.69,23.26,24.05l33.88-4.34c12.66-1.62,22.89-14.9,22.89-29.66v-62a310.6,310.6,0,0,0,82.06-34.78l25.56,49.59c6.1,11.85,19.59,14.51,30.1,6l27.8-22.53c10.4-8.42,13.95-24.77,8-36.55l-24.81-48.77a396.6,396.6,0,0,0,58.78-75l41.36,24.85c10.15,6.1,23.08.58,28.91-12.29l15.44-34.12c5.79-12.79,2.35-28.14-7.69-34.32l-40-24.62a443.26,443.26,0,0,0,22.23-97l44.63-3.16c11.5-.81,20.8-12.88,20.8-27v-37.41C2584,1062.79,2574.67,1051.92,2563.17,1052.58ZM2211,1302.46c-90.72,8.14-166-71.65-166-178.41s75.24-196.1,166-199.46c88.48-3.29,158.62,76.83,158.62,178.87S2299.51,1294.52,2211,1302.46Z"/><path class="cls-5" d="M1452.15,1101.77l20.78-45.76c7.79-17.16,3.17-37.76-10.35-46.06l-53.79-33.05a593.3,593.3,0,0,0,29.91-130.13l60-4.21c15.48-1.09,28-17.27,28-36.15v-50.2c0-18.88-12.5-33.46-28-32.58L1440.27,727a551.35,551.35,0,0,0-27.14-129.45l49.45-36.67a31.09,31.09,0,0,0,4.36-4l6.33,16.45,81.22-99.88-106-9.05A26.21,26.21,0,0,0,1430.92,454a24.83,24.83,0,0,0-17.67,4.88l-48.84,35.5a447.81,447.81,0,0,0-80.62-96.62l3.68-7.68,74.66,15.25,9.48-123.6L1258.23,263c-13-5-27.79,1.34-35,16.14l-28.18,58.11c-36.21-18-6.2-37-47.36-42.44l43-63.39c0-19.76-126.09-32.92-143.12-32.92h-45.59c-17.26,0-31.29,16.23-31.29,36.26v67.88a404.19,404.19,0,0,0-122.25,39.68l77.87-57.22s-137.17-26-152.77-15.67L731.89,297c-15.79,10.43-21.21,33.25-12.08,50.92L751.38,409c-34.56,30.77-49.26,48.53-75.42,89.15L602.62,481.6c-16.2-10-37-3.2-46.4,15.14l-25.13,48.94c-9.48,18.47-3.85,41.46,12.54,51.28l59.13,35.45a593.34,593.34,0,0,0-32.29,144.3l-70.94,4.06c-19.09,1.09-34.63,19.05-34.63,40.12v56c0,19.1,12.79,34,29.41,35.6v0l80.62,12.9a536.74,536.74,0,0,0,33,118.68l-64.27,46.7c-16.39,11.91-22,35.62-12.54,52.88l25.13,45.74c9.41,17.15,158.83,27.57,158.83,27.57l-47.44-66.54a430.14,430.14,0,0,0,89.65,89.74l-37.45,77.24c-9.13,18.83-3.71,41,12.07,49.39l41.75,22.27a27.1,27.1,0,0,0,8.21,2.77l-.17.78,130.22,16,12.74-98.28a372.41,372.41,0,0,0,46.15,4.17v84.08c0,14.94,7.82,26.78,19,30.9l-.57,2.46,129,16.11,2.58-159.41a427.06,427.06,0,0,0,68.11-33.14l34.39,66.55c4.27,8.27,11.24,13.17,18.92,14.4v0l124.69,16.87-42.71-117.51-17.23,5.29-28.41-55.72a533.06,533.06,0,0,0,79.09-100.62l55.64,33.35C1426.91,1126.43,1444.31,1119,1452.15,1101.77Zm-427.23-43.06C902.85,1069.58,801.6,962.48,801.6,819.23s101.25-263.07,223.32-267.54c119.06-4.35,213.44,103.19,213.44,240.1S1144,1048.1,1024.92,1058.71Zm521.34-275.06,84.47-40-84.47-10.25ZM1442.58,1124.9l96.63,13,14.1-33-80-48.66Z"/><path class="cls-6" d="M1623.26,742.2l-58.15,3.36a550.69,550.69,0,0,0-27-129.08l49.17-36.59c13.43-10,18-31.13,10.28-47.24l-20.66-43c-7.79-16.22-25.09-21.38-38.67-11.47l-48.57,35.41a445.93,445.93,0,0,0-80.16-96.3l27.94-58.54c8-16.79,3.27-38.05-10.64-47.54l-37.2-25.36c-14.06-9.59-32.1-3.7-40.27,13.2l-28,58a368.6,368.6,0,0,0-116-35.62V254.47c0-19.74-13.68-35.74-30.62-35.74l-45.33,0c-17.16,0-31.11,16.2-31.11,36.16V322.6a401.32,401.32,0,0,0-121.55,39.63l-30.29-59.55c-8.9-17.5-28.66-23.39-44.18-13.1l-41.5,27.52c-15.7,10.41-21.09,33.17-12,50.78l31.39,60.91a522,522,0,0,0-91.09,107.43l-56.8-35c-16.11-9.91-36.78-3.17-46.14,15.12l-25,48.81c-9.43,18.42-3.83,41.34,12.46,51.13l58.79,35.31a593.07,593.07,0,0,0-32.1,143.9l-70.53,4.08c-19,1.09-34.43,19-34.43,40v55.86c0,21,15.45,36.94,34.43,35.6l72.4-5.12a540.57,540.57,0,0,0,35.34,136.18l-63.9,46.6c-16.29,11.88-21.89,35.52-12.46,52.72l25,45.61c9.36,17.09,30,21.17,46.14,9.18l64.61-48.08A428.23,428.23,0,0,0,886,1257.6l-37.24,77c-9.08,18.78-3.69,40.85,12,49.24l41.5,22.19c15.52,8.29,35.28-.14,44.18-18.78L983.38,1310a365.83,365.83,0,0,0,114.92,21.74v83.84c0,20,14,34.36,31.11,32.16l45.33-5.8c16.94-2.17,30.62-19.93,30.62-39.67v-82.91a414.76,414.76,0,0,0,109.79-46.53l34.2,66.35c8.17,15.85,26.21,19.42,40.27,8l37.2-30.14c13.91-11.28,18.66-33.15,10.64-48.91l-33.18-65.25a531.73,531.73,0,0,0,78.64-100.36l55.33,33.23c13.58,8.16,30.88.78,38.67-16.44l20.66-45.64c7.75-17.11,3.15-37.65-10.28-45.92l-53.49-32.94A593.36,593.36,0,0,0,1563.55,865l59.71-4.22c15.39-1.09,27.83-17.23,27.83-36.06V774.67C1651.09,755.85,1638.65,741.31,1623.26,742.2Zm-471.13,334.31c-121.37,10.89-222-95.86-222-238.7s100.66-262.35,222-266.86c118.38-4.39,212.22,102.8,212.22,239.32S1270.51,1065.89,1152.13,1076.51Z"/><path class="cls-5" d="M3703.22,3452.09,899.49,3427.86v71.71c0,19.46,12.23,36,28.79,39l792.81,141.2a109.87,109.87,0,0,0,28.45,1.33l1923.21-161c17.17-1.44,30.47-18,30.47-38Z"/><path class="cls-5" d="M2671.44,3337.18l-1782,131.18c-31.89,2.35-57.82-22.6-57.82-55.72v-1327c0-33.12,25.93-60,57.82-60h1782c26.27,0,47.52,24.27,47.52,54.21V3279.47C2719,3309.41,2697.71,3335.25,2671.44,3337.18Z"/><path class="cls-3" d="M2699.86,3337.18l-1782,131.18c-31.89,2.35-57.81-22.6-57.81-55.72v-1327c0-33.12,25.92-60,57.81-60h1782c26.27,0,47.51,24.27,47.51,54.21V3279.47C2747.37,3309.41,2726.13,3335.25,2699.86,3337.18Z"/><path class="cls-7" d="M2644.34,3252.61,984.6,3366.55c-26,1.79-47-18.69-47-45.73V2159c0-27,21.09-49.05,47-49.16l1659.74-7.16c21.68-.09,39.2,19.8,39.2,44.43V3205.32C2683.54,3230,2666,3251.12,2644.34,3252.61Z"/><path class="cls-3" d="M1871.8,2062c0,12.33-9.18,22.36-20.5,22.39s-20.55-9.95-20.55-22.31,9.21-22.38,20.55-22.39S1871.8,2049.63,1871.8,2062Z"/><path class="cls-8" d="M917.86,3468.36l1773-130.52,9-.66c12-.89,23-6.85,31.38-15.88-127.58-7-206.83-52.26-257.95-99.05-102.66-93.95-84.85-186.6-195.55-248.37-138.08-77.05-246.65,20.58-351.43-75.75-63.53-58.4-32.34-101.94-110.5-189.21-86.58-96.66-142.94-64.17-230-151.17-110-110-55-195.58-149.75-274.55-115-95.81-238.93-7.13-348.37-99-47.2-39.62-73.09-97.24-86.62-158.51H917.86c-31.88,0-57.81,26.85-57.81,60v1327C860.05,3445.76,886,3470.7,917.86,3468.36Z"/><path class="cls-9" d="M2783.82,3329.9,899.49,3468l821.6,146.33a109.87,109.87,0,0,0,28.45,1.33l1953.68-163.55-889.43-121.25A144.44,144.44,0,0,0,2783.82,3329.9Z"/><polygon class="cls-6" points="1174.44 3469.17 2743.2 3352.5 3228.72 3418.16 1673.47 3542.87 1174.44 3469.17"/><g class="cls-10"><path class="cls-11" d="M2836.59,2386.69s27.58-33,79.34-34.54,122.29-32.28,152.57-35c7.31-.65,10.93-2.75,11.56-5.42,1.27-5.49-32.35-13.49-62.18-14.49-52.88-1.76-83.73,18.54-90.86,8.1-8-11.66,26.16-43.49,19.91-50.61-4.84-5.53-28,12.21-52.89,23-17.64,7.68-86.6,90.14-86.6,90.14Z"/><path class="cls-12" d="M2838.27,2326.82q19.24,38.85,38.5,77.69a1030.4,1030.4,0,0,1-96.41,285.55c-62.26,121.45-204.16,398.29-454,423.4-190.55,19.16-350.41-117.27-410.92-169.48-56-48.28-106.17-90.87-130.55-158.79-38.45-107.14.37-239.24,93.5-363.63,45.84-61.24,141.25-48.06,168.35,23.48,42.75,112.87,114.86,191.26,197.69,206.57,93.15,17.23,196.87-45.87,241-72.67,65.65-39.85,82.39-70.5,164-133.63A1140.35,1140.35,0,0,1,2838.27,2326.82Z"/><g class="cls-13"><path class="cls-14" d="M2079.74,2907.52c71.36-16.07,98.3-82.34,196.12-88.28,123.7-7.51,176.85,92.61,256,66.21,64.58-21.56,75.31-103.65,120.34-209.33,34.92-82,95.49-189.8,208.4-304.29l16.2,32.68a1030.4,1030.4,0,0,1-96.41,285.55c-62.26,121.45-204.16,398.29-454,423.4-190.55,19.16-350.41-117.27-410.92-169.48-56-48.28-106.17-90.87-130.55-158.79a250.13,250.13,0,0,1-13.21-58.52C1919.22,2895.13,2015.68,2921.94,2079.74,2907.52Z"/></g><path class="cls-15" d="M1175.63,3382.08c-1.51-73.81-5.47-481.07,191.7-773.93,45.2-67.13,125.16-185.9,278.69-264.49a656.85,656.85,0,0,1,150.88-55l131.36,19.52A798.57,798.57,0,0,1,2077.36,2491c31.83,53.66,84.51,142.47,96.71,257.11,14.22,133.6-38.89,186.26-82.51,394.34a1653.73,1653.73,0,0,0-33.72,269.81l-454.42,39a2136.58,2136.58,0,0,0-21.3-237.86,2136.12,2136.12,0,0,0-49.7-241.41,1839.41,1839.41,0,0,0-55,486.37c-18.4,7.25-122,46.08-221.89-7.1C1216.5,3430.54,1190.94,3402.59,1175.63,3382.08Z"/><path class="cls-16" d="M1862,2046.35c101.13-82.42,151.7-123.63,170.53-176.29,41.16-115.06-14.25-245.38-80.46-320.49-92.92-105.41-228.49-126.34-314.28-139.59-110.24-17-117.24,8.93-168.61-13.21C1327.2,1335.58,1375,1135,1243.07,981c-145.6-169.9-407-162.73-473-158.32-351.72,23.5-532.26,328-550.23,359.52-166.45,291.92-87.2,644.13,82.4,846.94,48.49,58,172.56,206.36,316.16,191.62C756.69,2206.53,795.69,2053.15,988,2028c26.87-3.52,108.28-14.16,197.6,20.27,100.87,38.88,116.61,98.55,224.19,136,87.23,30.41,163,21.21,178.2,19.17C1683.32,2190.63,1744.19,2142.35,1862,2046.35Z"/><g class="cls-13"><path class="cls-17" d="M185.94,1250c-36,327,.26,444.84,59.67,468.8,83.13,33.53,191.67-124.65,321.58-81.21,116.84,39.08,101.42,191.25,208.7,224.67,135.61,42.23,226.9-180.15,389-166.2,192.91,16.61,217.24,344.85,432,402.79,65.06,17.55,154.58,12.1,277.56-62.69L1862,2046.35c-117.81,96-178.68,144.28-274,157.13-15.15,2-91,11.24-178.2-19.17-107.58-37.49-123.32-97.16-224.19-136-89.32-34.43-170.73-23.79-197.6-20.27-192.3,25.15-231.3,178.53-369.59,192.72-143.6,14.74-267.67-133.62-316.16-191.62C145.6,1841.79,66,1527,185.94,1250Z"/></g><path class="cls-18" d="M1906.56,2091.05s3.69,94.86,0,158.54c-2.7,46.61,37.62,73.17,37.62,73.17s22.13,37.93-97.58,44.26-236.18,0-236.18,0,117-77.84,143.77-98.52,41.08-175.35,24-273.3Z"/><path class="cls-19" d="M1937.21,1785s60.92,146.9,60.6,235.65-62.39,139.7-109.46,117.77-118-114.22-118-114.22-9.53,24.85-45.63,0-62.92-164.4,7.29-124.8c0,0-11.11-39.12,6.2-95.85S1916.67,1685.53,1937.21,1785Z"/><g class="cls-13"><path class="cls-20" d="M1431.23,3193.56c52.8-82.87-27.71-154.7,6.5-285.85,29.18-111.91,124.23-199.28,159.16-185.15,48.27,19.51-46.57,221.3,48.73,315.08,63.26,62.25,145.72,13.35,230.62,68.21,56,36.19,112.25,117.05,116.65,312l-389.47,33.47a2136.58,2136.58,0,0,0-21.3-237.86,2136.12,2136.12,0,0,0-49.7-241.41,1839.41,1839.41,0,0,0-55,486.37c-18.4,7.25-122,46.09-221.89-7.1-5.57-3-10.84-6.1-15.88-9.32,2.56-43,13.59-92.13,45.44-134.74C1336.82,3238,1393,3253.5,1431.23,3193.56Z"/></g><path class="cls-3" d="M1836.7,2098c-85.27,0-117.39-122.19-117.73-123.52a5.94,5.94,0,1,1,11.51-2.93c.34,1.33,34.91,132.67,125.09,112.4a5.93,5.93,0,0,1,2.6,11.58A98.18,98.18,0,0,1,1836.7,2098Z"/><ellipse class="cls-3" cx="1882.31" cy="2086.13" rx="30.67" ry="16.82" transform="matrix(0.97, -0.25, 0.25, 0.97, -464.41, 540.84)"/><ellipse class="cls-3" cx="1714.17" cy="1954.44" rx="28.65" ry="45.86" transform="matrix(0.97, -0.25, 0.25, 0.97, -436.68, 494.28)"/><path class="cls-3" d="M1699.7,1930.14l-2-4.94c-1.27-3.21-3-7.92-5.09-14a326.8,326.8,0,0,1-12.62-51.23c-3.55-21.53-5.24-47.33-1.55-74.62a178.27,178.27,0,0,1,10.46-41.09,168.2,168.2,0,0,1,21-38.48c8.57-12,19.24-22.32,30.33-31.48l8.51-6.61,8.88-5.86L1762,1659l4.56-2.55,9-5c3.23-1.73,6.1-2.92,9.15-4.37,3.22-1.22,6.38-2.61,9.55-3.62a133.64,133.64,0,0,1,54.37-6.49,74.12,74.12,0,0,1,8,1,62.69,62.69,0,0,1,7.69,1.47c2.44.63,4.87,1.09,7.15,1.84l6.62,2.28a55,55,0,0,1,6,2.62c1.89.94,3.81,1.67,5.49,2.7,3.3,2.13,6.51,3.83,9.08,5.84l6.76,5.49c1.84,1.73,3.26,3.37,4.48,4.61l3.67,3.89a3.16,3.16,0,0,1-4.56,4.37l-.3-.31-3.44-3.55c-1.14-1.14-2.45-2.64-4.17-4.23l-6.29-5c-2.38-1.84-5.37-3.35-8.42-5.3-1.56-.94-3.35-1.59-5.11-2.44a47.47,47.47,0,0,0-5.61-2.37l-6.18-2.07c-2.13-.68-4.41-1.07-6.71-1.65a60.3,60.3,0,0,0-7.11-1.28,64.74,64.74,0,0,0-7.64-.87,123.92,123.92,0,0,0-33.58,1.87,122.11,122.11,0,0,0-17.75,4.78c-3,1-5.79,2.27-8.75,3.4-2.89,1.4-6.16,2.83-8.82,4.32q-4.31,2.43-8.68,4.92l-4.38,2.49-4.2,2.83-8.47,5.71-8.07,6.41c-10.5,8.87-20.54,18.76-28.52,30.21a158.88,158.88,0,0,0-19.45,36.59,168.78,168.78,0,0,0-9.52,39.12c-3.26,26.06-1.4,50.88,2.25,71.65a316.64,316.64,0,0,0,12.72,49.42c2,5.81,3.78,10.31,5,13.33l2,4.55.1.22a5.54,5.54,0,1,1-10.19,4.36Z"/></g><path class="cls-21" d="M3504.49,1058.94v743.21c0,44.1-35.42,81.1-79.52,81.47l-1290.17,14.3h0l-7-9.36a25.71,25.71,0,0,1-1.39-31.13L2293.45,1622c23.35-33,36.53-72.64,36.53-113V1019.23c0-29.67,15.48-55.42,39.33-69.2a78,78,0,0,1,43.08-10.68l20.45.79,995,38.55A80.16,80.16,0,0,1,3504.49,1058.94Z"/><path class="cls-22" d="M3540.35,1058.94v743.21a80.2,80.2,0,0,1-79.49,80.3L2134.49,1895.9l.27-.32,194.56-273.84c23.35-33,36.52-72.35,36.52-112.75V1019.23c0-18.16,5.43-34.9,15.64-48.3A79.29,79.29,0,0,1,2433,940.14a78.2,78.2,0,0,1,15.15-.79l1015.57,39.34A80.17,80.17,0,0,1,3540.35,1058.94Z"/><path class="cls-3" d="M2581,1523.14V1520l44.72-38.69c28.38-25,49.17-44.19,60.36-57.69s20-26.62,25.33-39.48a107.25,107.25,0,0,0,8.2-41.32c0-16.87-4.22-31.94-12.91-45.16s-20.92-23.58-36.69-31.07-34.08-11.37-54.79-11.65a183.52,183.52,0,0,0-42.75,3.93,149.87,149.87,0,0,0-35.3,12.39c-10.82,5.46-24.45,14.79-41,28.11l38.42,44.23q19.91-15.6,38.14-24a85.57,85.57,0,0,1,37.49-8.13c12.25.09,22,3.37,29.35,9.7s11,16,11,28.85a64.28,64.28,0,0,1-5,24.92c-3.33,8-8.74,16.68-16.32,26s-24.32,26.21-49,50.53l-84.47,81.31v51.27h237.6v-60.66Z"/><path class="cls-3" d="M2957.58,1462.81V1264.14l-63.12-.84-143.09,204v46.92l139,.37v69.58h67.24v-69.39l35.86.09V1463Zm-65.91-92.07c-.75,17.06-1.33,29-1.33,38v53.76l-78.09-.37,59.79-86.57c7.67-11.24,14.39-24.54,19.84-33.51h1.81C2893.23,1342,2892.4,1353.68,2891.67,1370.74Z"/><path class="cls-3" d="M3125.55,1266.36,3081.64,1384l-75.21,200.12h60.69l39.94-107.48,78.54-208.53Z"/><path class="cls-3" d="M3199.65,1267.79v55.61l154.77,3.65-117.65,257.07h69.57l117.46-272.23v-41.14Z"/><g class="cls-23"><path class="cls-3" d="M3540.35,1782.83v19.32a80.2,80.2,0,0,1-79.49,80.3l-1326.37,14.62.31.85h0l-7-9.36a25.71,25.71,0,0,1-1.39-31.13L2293.45,1622c23.35-33,36.53-72.64,36.53-113V1019.23c0-29.67,15.48-55.42,39.33-69.2,3.88,7.4,7.62,14.33,11.88,20.9a252.06,252.06,0,0,0,15.87,22.51c143.07,180.28,406.57,52.47,599.42,245.69,49.14,49.23,70.68,96.29,85.2,142.93,9.62,30.88,16.07,61.62,25.4,92.63,16.18,54,41,108.91,105.53,167.39,104.37,94.48,194,90.92,292,126.05C3516.43,1772.39,3531.38,1777.19,3540.35,1782.83Z"/></g></g></g></svg>