<svg id="Capa_1" data-name="Capa 1" xmlns="http://www.w3.org/2000/svg" viewBox="0 0 192 192"><defs><style>.cls-1{fill:#f49739;}.cls-2{fill:#fff;}</style></defs><title>tw</title><rect class="cls-1" width="192" height="192"/><path class="cls-2" d="M315.24,387.61a47,47,0,0,1-3,4.12,51.22,51.22,0,0,1-9.82,9.29l-.44.85a69,69,0,0,1-.61,11.92,78.44,78.44,0,0,1-7.07,23.92,79.27,79.27,0,0,1-14.71,21.17,72.23,72.23,0,0,1-37.09,20.61,84.31,84.31,0,0,1-15,1.77c-.81,0-1.61,0-2.42,0a75.41,75.41,0,0,1-40.49-11.59l-.65-.41a54.37,54.37,0,0,0,6.31.33,54.93,54.93,0,0,0,20.6-4,52.39,52.39,0,0,0,12.81-7.48,26.64,26.64,0,0,1-24.85-18.66,26.64,26.64,0,0,0,5,.48,29.18,29.18,0,0,0,6.51-.77l.4-.2a26.8,26.8,0,0,1-21.21-26.59,26.63,26.63,0,0,0,12,3.24,26.91,26.91,0,0,1-7.88-35.76C208,397,226.31,406.43,248.77,408c-.16-1.09-.28-2-.44-2.95a27.19,27.19,0,0,1,22.43-29.7,29.37,29.37,0,0,1,4.88-.4c7,0,13.26,2.71,18.59,7.92a1.44,1.44,0,0,0,1,.44,1.36,1.36,0,0,0,.4,0,53,53,0,0,0,15.68-6l.37-.2a26.4,26.4,0,0,1-11.44,14.63A55.51,55.51,0,0,0,315.24,387.61Z" transform="translate(-154.08 -331.19)"/></svg>