<svg id="Capa_1" data-name="Capa 1" xmlns="http://www.w3.org/2000/svg" viewBox="0 0 192 192"><defs><style>.cls-1{fill:#fff;}.cls-2{fill:#f93;}</style></defs><title>twb</title><rect class="cls-1" width="192" height="192"/><path class="cls-2" d="M161.16,56.42a46.58,46.58,0,0,1-3,4.12,51.17,51.17,0,0,1-9.82,9.29l-.44.85a68.89,68.89,0,0,1-.61,11.92,78.52,78.52,0,0,1-7.07,23.92,79.36,79.36,0,0,1-14.71,21.17A72.19,72.19,0,0,1,88.42,148.3a84.15,84.15,0,0,1-15,1.77H71a75.42,75.42,0,0,1-40.49-11.59l-.65-.41a56.2,56.2,0,0,0,26.91-3.67,52.23,52.23,0,0,0,12.81-7.48,26.63,26.63,0,0,1-24.85-18.66,26.23,26.23,0,0,0,5,.48,29.11,29.11,0,0,0,6.51-.77l.4-.2A26.8,26.8,0,0,1,35.43,81.18a26.67,26.67,0,0,0,12,3.24,26.91,26.91,0,0,1-7.88-35.76C53.92,65.81,72.23,75.24,94.69,76.81c-.16-1.09-.28-2-.44-3a27.19,27.19,0,0,1,22.43-29.7,29.57,29.57,0,0,1,4.88-.4,26,26,0,0,1,18.59,7.92,1.44,1.44,0,0,0,1,.44,1.34,1.34,0,0,0,.4,0,52.87,52.87,0,0,0,15.68-6l.37-.2a26.42,26.42,0,0,1-11.44,14.63A55.79,55.79,0,0,0,161.16,56.42Z" transform="translate(0 0)"/></svg>